{
  "accessors": [
    {
      "bufferView": 2,
      "componentType": 5126,
      "count": 56235,
      "max": [
        59.0,
        122.0,
        58.0
      ],
      "min": [
        -59.0,
        1.0,
        -59.0
      ],
      "type": "VEC3"
    },
    {
      "bufferView": 2,
      "byteOffset": 674820,
      "componentType": 5126,
      "count": 56235,
      "max": [
        1.0,
        1.0,
        1.0
      ],
      "min": [
        -1.0,
        -1.0,
        -1.0
      ],
      "type": "VEC3"
    },
    {
      "bufferView": 1,
      "componentType": 5126,
      "count": 56235,
      "max": [
        0.9941409826278687,
        0.5
      ],
      "min": [
        0.0019531298894435167,
        0.5
      ],
      "type": "VEC2"
    },
    {
      "bufferView": 0,
      "componentType": 5125,
      "count": 117171,
      "type": "SCALAR"
    },
    {
      "bufferView": 2,
      "byteOffset": 1349640,
      "componentType": 5126,
      "count": 3165,
      "max": [
        55.0,
        118.0,
        52.0
      ],
      "min": [
        -57.0,
        2.0,
        -57.0
      ],
      "type": "VEC3"
    },
    {
      "bufferView": 2,
      "byteOffset": 1387620,
      "componentType": 5126,
      "count": 3165,
      "max": [
        1.0,
        1.0,
        1.0
      ],
      "min": [
        -1.0,
        -1.0,
        -1.0
      ],
      "type": "VEC3"
    },
    {
      "bufferView": 1,
      "byteOffset": 449880,
      "componentType": 5126,
      "count": 3165,
      "max": [
        0.15820300579071045,
        0.5
      ],
      "min": [
        0.15820300579071045,
        0.5
      ],
      "type": "VEC2"
    },
    {
      "bufferView": 0,
      "byteOffset": 468684,
      "componentType": 5125,
      "count": 5544,
      "type": "SCALAR"
    },
    {
      "bufferView": 2,
      "byteOffset": 1425600,
      "componentType": 5126,
      "count": 3159,
      "max": [
        53.0,
        121.0,
        52.0
      ],
      "min": [
        -54.0,
        9.0,
        -59.0
      ],
      "type": "VEC3"
    },
    {
      "bufferView": 2,
      "byteOffset": 1463508,
      "componentType": 5126,
      "count": 3159,
      "max": [
        1.0,
        1.0,
        1.0
      ],
      "min": [
        -1.0,
        -1.0,
        -1.0
      ],
      "type": "VEC3"
    },
    {
      "bufferView": 1,
      "byteOffset": 475200,
      "componentType": 5126,
      "count": 3159,
      "max": [
        0.16601599752902985,
        0.5
      ],
      "min": [
        0.16601599752902985,
        0.5
      ],
      "type": "VEC2"
    },
    {
      "bufferView": 0,
      "byteOffset": 490860,
      "componentType": 5125,
      "count": 5319,
      "type": "SCALAR"
    },
    {
      "bufferView": 2,
      "byteOffset": 1501416,
      "componentType": 5126,
      "count": 361,
      "max": [
        54.0,
        118.0,
        51.0
      ],
      "min": [
        -54.0,
        17.0,
        -25.0
      ],
      "type": "VEC3"
    },
    {
      "bufferView": 2,
      "byteOffset": 1505748,
      "componentType": 5126,
      "count": 361,
      "max": [
        1.0,
        0.0,
        0.7071068286895752
      ],
      "min": [
        -1.0,
        0.0,
        -1.0
      ],
      "type": "VEC3"
    },
    {
      "bufferView": 1,
      "byteOffset": 500472,
      "componentType": 5126,
      "count": 361,
      "max": [
        0.40429699420928955,
        0.5
      ],
      "min": [
        0.40429699420928955,
        0.5
      ],
      "type": "VEC2"
    },
    {
      "bufferView": 0,
      "byteOffset": 512136,
      "componentType": 5125,
      "count": 750,
      "type": "SCALAR"
    },
    {
      "bufferView": 2,
      "byteOffset": 1510080,
      "componentType": 5126,
      "count": 448,
      "max": [
        54.0,
        48.0,
        46.0
      ],
      "min": [
        -50.0,
        1.0,
        -53.0
      ],
      "type": "VEC3"
    },
    {
      "bufferView": 2,
      "byteOffset": 1515456,
      "componentType": 5126,
      "count": 448,
      "max": [
        1.0,
        1.0,
        1.0
      ],
      "min": [
        -1.0,
        -1.0,
        -1.0
      ],
      "type": "VEC3"
    },
    {
      "bufferView": 1,
      "byteOffset": 503360,
      "componentType": 5126,
      "count": 448,
      "max": [
        0.5878909826278687,
        0.5
      ],
      "min": [
        0.5878909826278687,
        0.5
      ],
      "type": "VEC2"
    },
    {
      "bufferView": 0,
      "byteOffset": 515136,
      "componentType": 5125,
      "count": 1110,
      "type": "SCALAR"
    },
    {
      "bufferView": 2,
      "byteOffset": 1520832,
      "componentType": 5126,
      "count": 48,
      "max": [
        52.0,
        49.0,
        44.0
      ],
      "min": [
        -45.0,
        16.0,
        -54.0
      ],
      "type": "VEC3"
    },
    {
      "bufferView": 2,
      "byteOffset": 1521408,
      "componentType": 5126,
      "count": 48,
      "max": [
        0.5773503184318542,
        1.0,
        0.5773503184318542
      ],
      "min": [
        -0.577350378036499,
        -1.0,
        -0.7071068286895752
      ],
      "type": "VEC3"
    },
    {
      "bufferView": 1,
      "byteOffset": 506944,
      "componentType": 5126,
      "count": 48,
      "max": [
        0.02929689921438694,
        0.5
      ],
      "min": [
        0.02929689921438694,
        0.5
      ],
      "type": "VEC2"
    },
    {
      "bufferView": 0,
      "byteOffset": 519576,
      "componentType": 5125,
      "count": 72,
      "type": "SCALAR"
    },
    {
      "bufferView": 2,
      "byteOffset": 1521984,
      "componentType": 5126,
      "count": 183,
      "max": [
        54.0,
        102.0,
        16.0
      ],
      "min": [
        -26.0,
        20.0,
        -59.0
      ],
      "type": "VEC3"
    },
    {
      "bufferView": 2,
      "byteOffset": 1524180,
      "componentType": 5126,
      "count": 183,
      "max": [
        1.0,
        0.9045340418815613,
        1.0
      ],
      "min": [
        -1.0,
        0.0,
        -1.0
      ],
      "type": "VEC3"
    },
    {
      "bufferView": 1,
      "byteOffset": 507328,
      "componentType": 5126,
      "count": 183,
      "max": [
        0.8417969942092896,
        0.5
      ],
      "min": [
        0.8417969942092896,
        0.5
      ],
      "type": "VEC2"
    },
    {
      "bufferView": 0,
      "byteOffset": 519864,
      "componentType": 5125,
      "count": 354,
      "type": "SCALAR"
    }
  ],
  "asset": {
    "extras": {
      "author": "Cristian Brevis Acevedo (https://sketchfab.com/cbrevis)",
      "license": "CC-BY-4.0 (http://creativecommons.org/licenses/by/4.0/)",
      "source": "https://sketchfab.com/3d-models/nacion-pirata-independiente-de-neutronia-bbc89b95b4094c948c4aa4f2c34f680f",
      "title": "Nación pirata independiente de Neutronia"
    },
    "generator": "Sketchfab-12.67.0",
    "version": "2.0"
  },
  "bufferViews": [
    {
      "buffer": 0,
      "byteLength": 521280,
      "name": "floatBufferViews",
      "target": 34963
    },
    {
      "buffer": 0,
      "byteLength": 508792,
      "byteOffset": 521280,
      "byteStride": 8,
      "name": "floatBufferViews",
      "target": 34962
    },
    {
      "buffer": 0,
      "byteLength": 1526376,
      "byteOffset": 1030072,
      "byteStride": 12,
      "name": "floatBufferViews",
      "target": 34962
    }
  ],
  "buffers": [
    {
      "byteLength": 2556448,
      "uri": "scene.bin"
    }
  ],
  "images": [
    {
      "uri": "textures/palette_baseColor.png"
    }
  ],
  "materials": [
    {
      "doubleSided": true,
      "name": "palette",
      "pbrMetallicRoughness": {
        "baseColorTexture": {
          "index": 0
        },
        "metallicFactor": 0.0,
        "roughnessFactor": 0.6873094512
      }
    },
    {
      "alphaMode": "BLEND",
      "doubleSided": true,
      "emissiveFactor": [
        1.0,
        1.0,
        1.0
      ],
      "emissiveTexture": {
        "index": 0
      },
      "name": "Ventanas1",
      "pbrMetallicRoughness": {
        "baseColorFactor": [
          1.0,
          1.0,
          1.0,
          0.1873094512
        ],
        "baseColorTexture": {
          "index": 0
        },
        "metallicFactor": 0.0,
        "roughnessFactor": 0.9577051495
      }
    },
    {
      "alphaMode": "BLEND",
      "doubleSided": true,
      "emissiveFactor": [
        0.2610518293,
        0.2610518293,
        0.2610518293
      ],
      "emissiveTexture": {
        "index": 0
      },
      "name": "Ventanas2",
      "pbrMetallicRoughness": {
        "baseColorFactor": [
          1.0,
          1.0,
          1.0,
          0.6385289634
        ],
        "baseColorTexture": {
          "index": 0
        },
        "metallicFactor": 0.0,
        "roughnessFactor": 0.9577051495
      }
    },
    {
      "doubleSided": true,
      "emissiveFactor": [
        1.0,
        1.0,
        1.0
      ],
      "emissiveTexture": {
        "index": 0
      },
      "name": "NeonMorado",
      "pbrMetallicRoughness": {
        "baseColorTexture": {
          "index": 0
        },
        "metallicFactor": 0.0
      }
    },
    {
      "alphaMode": "BLEND",
      "doubleSided": true,
      "emissiveFactor": [
        1.0,
        1.0,
        1.0
      ],
      "emissiveTexture": {
        "index": 0
      },
      "name": "energia",
      "pbrMetallicRoughness": {
        "baseColorFactor": [
          1.0,
          1.0,
          1.0,
          0.729992378
        ],
        "baseColorTexture": {
          "index": 0
        }
      }
    },
    {
      "doubleSided": true,
      "emissiveFactor": [
        1.0,
        1.0,
        1.0
      ],
      "emissiveTexture": {
        "index": 0
      },
      "name": "turbo",
      "pbrMetallicRoughness": {
        "baseColorTexture": {
          "index": 0
        },
        "metallicFactor": 0.0,
        "roughnessFactor": 0.0
      }
    },
    {
      "doubleSided": true,
      "emissiveFactor": [
        1.0,
        1.0,
        1.0
      ],
      "emissiveTexture": {
        "index": 0
      },
      "name": "neonRojo",
      "pbrMetallicRoughness": {
        "baseColorTexture": {
          "index": 0
        }
      }
    }
  ],
  "meshes": [
    {
      "name": "VoxelSciFiCity2_palette_0",
      "primitives": [
        {
          "attributes": {
            "NORMAL": 1,
            "POSITION": 0,
            "TEXCOORD_0": 2
          },
          "indices": 3,
          "material": 0,
          "mode": 4
        }
      ]
    },
    {
      "name": "VoxelSciFiCity2_Ventanas1_0",
      "primitives": [
        {
          "attributes": {
            "NORMAL": 5,
            "POSITION": 4,
            "TEXCOORD_0": 6
          },
          "indices": 7,
          "material": 1,
          "mode": 4
        }
      ]
    },
    {
      "name": "VoxelSciFiCity2_Ventanas2_0",
      "primitives": [
        {
          "attributes": {
            "NORMAL": 9,
            "POSITION": 8,
            "TEXCOORD_0": 10
          },
          "indices": 11,
          "material": 2,
          "mode": 4
        }
      ]
    },
    {
      "name": "VoxelSciFiCity2_NeonMorado_0",
      "primitives": [
        {
          "attributes": {
            "NORMAL": 13,
            "POSITION": 12,
            "TEXCOORD_0": 14
          },
          "indices": 15,
          "material": 3,
          "mode": 4
        }
      ]
    },
    {
      "name": "VoxelSciFiCity2_energia_0",
      "primitives": [
        {
          "attributes": {
            "NORMAL": 17,
            "POSITION": 16,
            "TEXCOORD_0": 18
          },
          "indices": 19,
          "material": 4,
          "mode": 4
        }
      ]
    },
    {
      "name": "VoxelSciFiCity2_turbo_0",
      "primitives": [
        {
          "attributes": {
            "NORMAL": 21,
            "POSITION": 20,
            "TEXCOORD_0": 22
          },
          "indices": 23,
          "material": 5,
          "mode": 4
        }
      ]
    },
    {
      "name": "VoxelSciFiCity2_neonRojo_0",
      "primitives": [
        {
          "attributes": {
            "NORMAL": 25,
            "POSITION": 24,
            "TEXCOORD_0": 26
          },
          "indices": 27,
          "material": 6,
          "mode": 4
        }
      ]
    }
  ],
  "nodes": [
    {
      "children": [
        1
      ],
      "matrix": [
        0.019460245966911316,
        0.0,
        0.0,
        0.0,
        0.0,
        4.321042627466757e-18,
        -0.019460245966911316,
        0.0,
        0.0,
        0.019460245966911316,
        4.321042627466757e-18,
        0.0,
        0.0,
        0.0,
        0.0,
        1.0
      ],
      "name": "Sketchfab_model"
    },
    {
      "children": [
        2
      ],
      "matrix": [
        1.0,
        0.0,
        0.0,
        0.0,
        0.0,
        0.0,
        1.0,
        0.0,
        0.0,
        -1.0,
        0.0,
        0.0,
        0.0,
        0.0,
        0.0,
        1.0
      ],
      "name": "780d4324af69482b8c8fc0284f1d9d02.fbx"
    },
    {
      "children": [
        3
      ],
      "name": "RootNode"
    },
    {
      "children": [
        4,
        5,
        6,
        7,
        8,
        9,
        10
      ],
      "matrix": [
        100.0,
        0.0,
        0.0,
        0.0,
        0.0,
        99.99999999999866,
        1.6292067073209114e-05,
        0.0,
        0.0,
        -1.6292067073209114e-05,
        99.99999999999866,
        0.0,
        0.0,
        0.0,
        0.0,
        1.0
      ],
      "name": "VoxelSciFiCity2"
    },
    {
      "mesh": 0,
      "name": "VoxelSciFiCity2_palette_0"
    },
    {
      "mesh": 1,
      "name": "VoxelSciFiCity2_Ventanas1_0"
    },
    {
      "mesh": 2,
      "name": "VoxelSciFiCity2_Ventanas2_0"
    },
    {
      "mesh": 3,
      "name": "VoxelSciFiCity2_NeonMorado_0"
    },
    {
      "mesh": 4,
      "name": "VoxelSciFiCity2_energia_0"
    },
    {
      "mesh": 5,
      "name": "VoxelSciFiCity2_turbo_0"
    },
    {
      "mesh": 6,
      "name": "VoxelSciFiCity2_neonRojo_0"
    }
  ],
  "samplers": [
    {
      "magFilter": 9729,
      "minFilter": 9987,
      "wrapS": 10497,
      "wrapT": 10497
    }
  ],
  "scene": 0,
  "scenes": [
    {
      "name": "Sketchfab_Scene",
      "nodes": [
        0
      ]
    }
  ],
  "textures": [
    {
      "sampler": 0,
      "source": 0
    }
  ]
}
