<svg xmlns="http://www.w3.org/2000/svg" version="1.1" xmlns:xlink="http://www.w3.org/1999/xlink" xmlns:svgjs="http://svgjs.dev/svgjs" width="1500" height="1500" viewBox="0 0 1500 1500"><rect width="1500" height="1500" fill="#000000"></rect><g transform="matrix(0.6666666666666666,0,0,0.6666666666666666,249.05787348586819,246.38064516129032)"><svg viewBox="0 0 247 248" data-background-color="#000000" preserveAspectRatio="xMidYMid meet" height="1506" width="1500" xmlns="http://www.w3.org/2000/svg" xmlns:xlink="http://www.w3.org/1999/xlink"><g id="tight-bounds" transform="matrix(1,0,0,1,0.23270524899055545,0.4000000000000057)"><svg viewBox="0 0 246.53458950201886 247.2" height="247.2" width="246.53458950201886"><g><svg viewBox="0 0 246.53458950201886 247.2" height="247.2" width="246.53458950201886"><g><svg viewBox="0 0 246.53458950201886 247.2" height="247.2" width="246.53458950201886"><g id="textblocktransform"><svg viewBox="0 0 246.53458950201886 247.2" height="247.2" width="246.53458950201886" id="textblock"><g><svg viewBox="0 0 246.53458950201886 247.2" height="247.2" width="246.53458950201886"><g transform="matrix(1,0,0,1,0,0)"><svg width="246.53458950201886" viewBox="1.9 -36.15 37.050000000000004 37.15" height="247.2" data-palette-color="url(#85a0ac95-c907-41a6-9b41-70d2de904ef5)"></svg></g></svg></g></svg></g></svg></g></svg></g><defs></defs><mask id="65990868-25ff-4157-a016-1f2c7d926d86"><g id="SvgjsG6859"><svg viewBox="0 0 246.53458950201886 247.2" height="247.2" width="246.53458950201886"><g><svg viewBox="0 0 246.53458950201886 247.2" height="247.2" width="246.53458950201886"><g><svg viewBox="0 0 246.53458950201886 247.2" height="247.2" width="246.53458950201886"><g id="SvgjsG6858"><svg viewBox="0 0 246.53458950201886 247.2" height="247.2" width="246.53458950201886" id="SvgjsSvg6857"><g><svg viewBox="0 0 246.53458950201886 247.2" height="247.2" width="246.53458950201886"><g transform="matrix(1,0,0,1,0,0)"><svg width="246.53458950201886" viewBox="1.9 -36.15 37.050000000000004 37.15" height="247.2" data-palette-color="url(#85a0ac95-c907-41a6-9b41-70d2de904ef5)"><path d="M18.5 1Q14.2 1 10.48 0.05 6.75-0.9 5.23-1.85 3.7-2.8 3.2-3.2L3.2-3.2Q1.9-4.25 1.9-6.1L1.9-6.1Q1.9-7.55 2.25-8.85L2.25-8.85Q2.9-11.3 4.6-11.3L4.6-11.3Q5.15-11.25 8.13-10.15 11.1-9.05 12.8-9.05L12.8-9.05Q15.35-9.05 15.35-11.05L15.35-11.05Q15.35-12.25 14.1-13.28 12.85-14.3 11.08-15.25 9.3-16.2 7.5-17.43 5.7-18.65 4.45-20.83 3.2-23 3.2-25.9L3.2-25.9Q3.2-30.7 7.9-33.43 12.6-36.15 20.05-36.15 27.5-36.15 31.88-34.63 36.25-33.1 36.25-30.4L36.25-30.4Q36.25-28.45 35.35-26.98 34.45-25.5 33.45-25.5L33.45-25.5Q33.1-25.5 31.13-26.28 29.15-27.05 27.55-27.05L27.55-27.05Q24.4-27.05 24.4-24.6L24.4-24.6Q24.4-23.4 25.9-22.4 27.4-21.4 29.53-20.48 31.65-19.55 33.8-18.4 35.95-17.25 37.45-15.25 38.95-13.25 38.95-10.4 38.95-7.55 37.13-5.2 35.3-2.85 32.3-1.55L32.3-1.55Q26.35 1 18.5 1L18.5 1Z" opacity="1" transform="matrix(1,0,0,1,0,0)" fill="white" class="wordmark-text-0" id="SvgjsPath6856"></path></svg></g></svg></g></svg></g></svg></g></svg></g><defs><mask></mask></defs></svg><rect width="246.53458950201886" height="247.2" fill="black" stroke="none" visibility="hidden"></rect></g></mask><linearGradient x1="0" x2="1" y1="0.548" y2="0.55" id="85a0ac95-c907-41a6-9b41-70d2de904ef5"><stop stop-color="#ff6cab" offset="0"></stop><stop stop-color="#7366ff" offset="1"></stop></linearGradient><rect width="246.53458950201886" height="247.2" fill="#ffffff" mask="url(#65990868-25ff-4157-a016-1f2c7d926d86)" data-fill-palette-color="primary"></rect></svg><rect width="246.53458950201886" height="247.2" fill="none" stroke="none" visibility="hidden"></rect></g></svg></g></svg>