<svg xmlns="http://www.w3.org/2000/svg" version="1.1" xmlns:xlink="http://www.w3.org/1999/xlink" xmlns:svgjs="http://svgjs.dev/svgjs" width="1500" height="1500" viewBox="0 0 1500 1500"><rect width="1500" height="1500" fill="#000000"></rect><g transform="matrix(0.30111412225233364,0,0,0.30111412225233364,524.029896631382,248.38709677419342)"><svg viewBox="0 0 112 248" data-background-color="#000000" preserveAspectRatio="xMidYMid meet" height="3321" width="1500" xmlns="http://www.w3.org/2000/svg" xmlns:xlink="http://www.w3.org/1999/xlink"><g id="tight-bounds" transform="matrix(1,0,0,1,0.03335459210944691,0.4000000000000057)"><svg viewBox="0 0 111.9332908157811 247.2" height="247.2" width="111.9332908157811"><rect width="111.9332908157811" height="247.2" fill="url(#73552eed-a300-4dd3-ae49-dc79cb291587)" mask="url(#055486ce-d17e-4814-9e23-0b87eab23462)" data-fill-palette-color="tertiary"></rect><g><svg viewBox="0 0 167.89568275862067 370.7906064" height="247.2" width="111.9332908157811"><g><svg viewBox="0 0 167.89568275862067 370.7906064" height="370.7906064" width="167.89568275862067"><g id="textblocktransform"><svg viewBox="0 0 167.89568275862067 370.7906064" height="370.7906064" width="167.89568275862067" id="textblock"><g><rect width="167.89568275862067" height="247.2" fill="none" stroke-width="9.018103199999999" stroke="url(#73552eed-a300-4dd3-ae49-dc79cb291587)" data-fill-palette-color="none" data-stroke-palette-color="tertiary"></rect><rect width="167.89568275862067" height="123.5906064" y="247.2" fill="url(#73552eed-a300-4dd3-ae49-dc79cb291587)" data-fill-palette-color="tertiary"></rect></g><g><svg viewBox="0 0 167.89568275862067 247.2" height="247.2" width="167.89568275862067"><g transform="matrix(1,0,0,1,23.607599999999998,23.607599999999998)"><svg width="120.68048275862067" viewBox="2.45 -34.6 21 34.800000000000004" height="199.9848" data-palette-color="url(#b8d8aab5-19ee-4fe3-b8f5-fa0bbc235cbb)"></svg></g></svg></g></svg></g></svg></g></svg></g><defs></defs><mask id="b6341056-22dc-4f5f-b3ae-9aa4dd18be3a"><g id="SvgjsG1513"><svg viewBox="0 0 111.9332908157811 247.2" height="247.2" width="111.9332908157811"><g><svg viewBox="0 0 167.89568275862067 370.7906064" height="247.2" width="111.9332908157811"><g><svg viewBox="0 0 167.89568275862067 370.7906064" height="370.7906064" width="167.89568275862067"><g id="SvgjsG1512"><svg viewBox="0 0 167.89568275862067 370.7906064" height="370.7906064" width="167.89568275862067" id="SvgjsSvg1511"><g><rect width="167.89568275862067" height="247.2" fill="black" stroke-width="9.018103199999999" stroke="url(#73552eed-a300-4dd3-ae49-dc79cb291587)" data-stroke-palette-color="tertiary"></rect><rect width="167.89568275862067" height="123.5906064" y="247.2" fill="black"></rect></g><g><svg viewBox="0 0 167.89568275862067 247.2" height="247.2" width="167.89568275862067"><g transform="matrix(1,0,0,1,23.607599999999998,23.607599999999998)"><svg width="120.68048275862067" viewBox="2.45 -34.6 21 34.800000000000004" height="199.9848" data-palette-color="url(#b8d8aab5-19ee-4fe3-b8f5-fa0bbc235cbb)"><path d="M11.85 0.2L11.85 0.2Q9.3 0.2 6.88-0.35 4.45-0.9 2.5-1.75L2.5-1.75 2.75-10.5 6.35-10.3 7.2-5.05Q8-4.75 9.2-4.45 10.4-4.15 11.7-4.15L11.7-4.15Q13.35-4.15 14.83-4.67 16.3-5.2 17.23-6.3 18.15-7.4 18.15-9.1L18.15-9.1Q18.15-10.45 17.6-11.4 17.05-12.35 15.9-13.2 14.75-14.05 12.8-14.95L12.8-14.95Q10.85-15.9 9-16.8 7.15-17.7 5.68-18.85 4.2-20 3.33-21.63 2.45-23.25 2.45-25.6L2.45-25.6Q2.45-28.35 3.93-30.38 5.4-32.4 7.93-33.5 10.45-34.6 13.4-34.6L13.4-34.6Q15.75-34.6 17.95-34.18 20.15-33.75 22.05-33.1L22.05-33.1 22.75-24.45 19.25-24.45 16.95-29.75Q16.15-30 15.2-30.13 14.25-30.25 13.3-30.25L13.3-30.25Q11.7-30.25 10.43-29.73 9.15-29.2 8.43-28.23 7.7-27.25 7.7-25.95L7.7-25.95Q7.7-24.65 8.4-23.7 9.1-22.75 10.23-22.05 11.35-21.35 12.7-20.78 14.05-20.2 15.3-19.6L15.3-19.6Q18.3-18.2 20.08-16.73 21.85-15.25 22.65-13.55 23.45-11.85 23.45-9.75L23.45-9.75Q23.45-7.2 22.48-5.33 21.5-3.45 19.85-2.23 18.2-1 16.1-0.4 14 0.2 11.85 0.2Z" opacity="1" transform="matrix(1,0,0,1,0,0)" fill="white" class="wordmark-text-0" id="SvgjsPath1510"></path></svg></g></svg></g></svg></g></svg></g></svg></g><defs><mask></mask></defs></svg><rect width="111.9332908157811" height="247.2" fill="black" stroke="none" visibility="hidden"></rect></g></mask><linearGradient x1="0" x2="1" y1="0.548" y2="0.55" id="b8d8aab5-19ee-4fe3-b8f5-fa0bbc235cbb"><stop stop-color="#ff6cab" offset="0"></stop><stop stop-color="#7366ff" offset="1"></stop></linearGradient><rect width="111.9332908157811" height="247.2" fill="url(#b8d8aab5-19ee-4fe3-b8f5-fa0bbc235cbb)" mask="url(#b6341056-22dc-4f5f-b3ae-9aa4dd18be3a)" data-fill-palette-color="primary"></rect><mask id="055486ce-d17e-4814-9e23-0b87eab23462"><g id="SvgjsG1536"><svg viewBox="0 0 111.9332908157811 247.2" height="247.2" width="111.9332908157811"><g><svg viewBox="0 0 167.89568275862067 370.7906064" height="247.2" width="111.9332908157811"><g><svg viewBox="0 0 167.89568275862067 370.7906064" height="370.7906064" width="167.89568275862067"><g id="SvgjsG1535"><svg viewBox="0 0 167.89568275862067 370.7906064" height="370.7906064" width="167.89568275862067" id="SvgjsSvg1534"><g><rect width="167.89568275862067" height="247.2" fill="black" stroke-width="9.018103199999999" stroke="url(#73552eed-a300-4dd3-ae49-dc79cb291587)" data-stroke-palette-color="tertiary"></rect><rect width="167.89568275862067" height="123.5906064" y="247.2" fill="white"></rect></g><g><svg viewBox="0 0 167.89568275862067 247.2" height="247.2" width="167.89568275862067"><g transform="matrix(1,0,0,1,23.607599999999998,23.607599999999998)"><svg width="120.68048275862067" viewBox="2.45 -34.6 21 34.800000000000004" height="199.9848" data-palette-color="url(#b8d8aab5-19ee-4fe3-b8f5-fa0bbc235cbb)"></svg></g></svg></g></svg></g></svg></g></svg></g><defs><mask></mask></defs><mask><g id="SvgjsG1533"><svg viewBox="0 0 111.9332908157811 247.2" height="247.2" width="111.9332908157811"><g><svg viewBox="0 0 167.89568275862067 370.7906064" height="247.2" width="111.9332908157811"><g><svg viewBox="0 0 167.89568275862067 370.7906064" height="370.7906064" width="167.89568275862067"><g id="SvgjsG1532"><svg viewBox="0 0 167.89568275862067 370.7906064" height="370.7906064" width="167.89568275862067" id="SvgjsSvg1531"><g><rect width="167.89568275862067" height="247.2" fill="black" stroke-width="9.018103199999999" stroke="url(#73552eed-a300-4dd3-ae49-dc79cb291587)" data-stroke-palette-color="tertiary"></rect><rect width="167.89568275862067" height="123.5906064" y="247.2" fill="black"></rect></g><g><svg viewBox="0 0 167.89568275862067 247.2" height="247.2" width="167.89568275862067"><g transform="matrix(1,0,0,1,23.607599999999998,23.607599999999998)"><svg width="120.68048275862067" viewBox="2.45 -34.6 21 34.800000000000004" height="199.9848" data-palette-color="url(#b8d8aab5-19ee-4fe3-b8f5-fa0bbc235cbb)"><path d="M11.85 0.2L11.85 0.2Q9.3 0.2 6.88-0.35 4.45-0.9 2.5-1.75L2.5-1.75 2.75-10.5 6.35-10.3 7.2-5.05Q8-4.75 9.2-4.45 10.4-4.15 11.7-4.15L11.7-4.15Q13.35-4.15 14.83-4.67 16.3-5.2 17.23-6.3 18.15-7.4 18.15-9.1L18.15-9.1Q18.15-10.45 17.6-11.4 17.05-12.35 15.9-13.2 14.75-14.05 12.8-14.95L12.8-14.95Q10.85-15.9 9-16.8 7.15-17.7 5.68-18.85 4.2-20 3.33-21.63 2.45-23.25 2.45-25.6L2.45-25.6Q2.45-28.35 3.93-30.38 5.4-32.4 7.93-33.5 10.45-34.6 13.4-34.6L13.4-34.6Q15.75-34.6 17.95-34.18 20.15-33.75 22.05-33.1L22.05-33.1 22.75-24.45 19.25-24.45 16.95-29.75Q16.15-30 15.2-30.13 14.25-30.25 13.3-30.25L13.3-30.25Q11.7-30.25 10.43-29.73 9.15-29.2 8.43-28.23 7.7-27.25 7.7-25.95L7.7-25.95Q7.7-24.65 8.4-23.7 9.1-22.75 10.23-22.05 11.35-21.35 12.7-20.78 14.05-20.2 15.3-19.6L15.3-19.6Q18.3-18.2 20.08-16.73 21.85-15.25 22.65-13.55 23.45-11.85 23.45-9.75L23.45-9.75Q23.45-7.2 22.48-5.33 21.5-3.45 19.85-2.23 18.2-1 16.1-0.4 14 0.2 11.85 0.2Z" opacity="1" transform="matrix(1,0,0,1,0,0)" fill="black" class="wordmark-text-0" id="SvgjsPath1530"></path></svg></g></svg></g></svg></g></svg></g></svg></g><defs><mask></mask></defs></svg><rect width="111.9332908157811" height="247.2" fill="black" stroke="none" visibility="hidden"></rect></g></mask></svg><rect width="111.9332908157811" height="247.2" fill="black" stroke="none" visibility="hidden"></rect></g></mask><linearGradient x1="0" x2="1" y1="0.548" y2="0.55" id="73552eed-a300-4dd3-ae49-dc79cb291587"><stop stop-color="#ff6cab" offset="0"></stop><stop stop-color="#7366ff" offset="1"></stop></linearGradient></svg><rect width="111.9332908157811" height="247.2" fill="none" stroke="none" visibility="hidden"></rect></g></svg></g></svg>